# Blender v2.91.0 OBJ File: 'untitled.blend'
# www.blender.org
mtllib cube-anim.mtl
o Cube
v 1.187398 1.000000 0.665784
v 1.187398 0.000000 0.665784
v 0.334216 1.000000 1.187398
v 0.334216 0.000000 1.187398
v 0.665784 1.000000 -0.187398
v 0.665784 0.000000 -0.187398
v -0.187398 1.000000 0.334216
v -0.187398 0.000000 0.334216
vt 1.000000 1.000000
vt 0.000000 1.000000
vt 0.000000 0.000000
vt 1.000000 0.000000
vt 1.000000 0.000000
vt 1.000000 1.000000
vt 0.000000 1.000000
vt 0.000000 0.000000
vt 1.000000 1.000000
vt 1.000000 0.000000
vt 0.000000 1.000000
vt 1.000000 1.000000
vt 1.000000 0.000000
vt 0.000000 1.000000
vt 0.000000 0.000000
vt 0.000000 0.000000
vn 0.0000 1.0000 0.0000
vn -0.8532 0.0000 0.5216
vn -0.5216 0.0000 -0.8532
vn 0.0000 -1.0000 0.0000
vn 0.5216 0.0000 0.8532
vn 0.8532 0.0000 -0.5216
usemtl mat
s off
f 1/1/1 5/2/1 7/3/1 3/4/1
f 4/5/2 3/6/2 7/7/2 8/8/2
f 8/8/3 7/7/3 5/9/3 6/10/3
f 6/11/4 2/12/4 4/5/4 8/8/4
f 2/13/5 1/1/5 3/14/5 4/15/5
f 6/16/6 5/2/6 1/1/6 2/13/6
