# Blender v2.91.0 OBJ File: 'untitled.blend'
# www.blender.org
mtllib cube-anim.mtl
o Cube
v 0.965713 1.000000 -0.032082
v 0.965713 0.000000 -0.032082
v 1.032082 1.000000 0.965713
v 1.032082 0.000000 0.965713
v -0.032082 1.000000 0.034287
v -0.032082 0.000000 0.034287
v 0.034287 1.000000 1.032082
v 0.034287 0.000000 1.032082
vt 1.000000 1.000000
vt 0.000000 1.000000
vt 0.000000 0.000000
vt 1.000000 0.000000
vt 1.000000 0.000000
vt 1.000000 1.000000
vt 0.000000 1.000000
vt 0.000000 0.000000
vt 1.000000 1.000000
vt 1.000000 0.000000
vt 0.000000 1.000000
vt 1.000000 1.000000
vt 1.000000 0.000000
vt 0.000000 1.000000
vt 0.000000 0.000000
vt 0.000000 0.000000
vn 0.0000 1.0000 0.0000
vn 0.0664 0.0000 0.9978
vn -0.9978 0.0000 0.0664
vn 0.0000 -1.0000 0.0000
vn 0.9978 0.0000 -0.0664
vn -0.0664 0.0000 -0.9978
usemtl mat
s off
f 1/1/1 5/2/1 7/3/1 3/4/1
f 4/5/2 3/6/2 7/7/2 8/8/2
f 8/8/3 7/7/3 5/9/3 6/10/3
f 6/11/4 2/12/4 4/5/4 8/8/4
f 2/13/5 1/1/5 3/14/5 4/15/5
f 6/16/6 5/2/6 1/1/6 2/13/6
