# Blender v2.91.0 OBJ File: 'untitled.blend'
# www.blender.org
mtllib cube-anim.mtl
o Cube
v 0.340594 1.000000 -0.188905
v 0.340594 0.000000 -0.188905
v 1.188905 1.000000 0.340594
v 1.188905 0.000000 0.340594
v -0.188905 1.000000 0.659406
v -0.188905 0.000000 0.659406
v 0.659406 1.000000 1.188905
v 0.659406 0.000000 1.188905
vt 1.000000 1.000000
vt 0.000000 1.000000
vt 0.000000 0.000000
vt 1.000000 0.000000
vt 1.000000 0.000000
vt 1.000000 1.000000
vt 0.000000 1.000000
vt 0.000000 0.000000
vt 1.000000 1.000000
vt 1.000000 0.000000
vt 0.000000 1.000000
vt 1.000000 1.000000
vt 1.000000 0.000000
vt 0.000000 1.000000
vt 0.000000 0.000000
vt 0.000000 0.000000
vn 0.0000 1.0000 0.0000
vn 0.8483 0.0000 0.5295
vn -0.5295 0.0000 0.8483
vn 0.0000 -1.0000 0.0000
vn 0.5295 0.0000 -0.8483
vn -0.8483 0.0000 -0.5295
usemtl mat
s off
f 1/1/1 5/2/1 7/3/1 3/4/1
f 4/5/2 3/6/2 7/7/2 8/8/2
f 8/8/3 7/7/3 5/9/3 6/10/3
f 6/11/4 2/12/4 4/5/4 8/8/4
f 2/13/5 1/1/5 3/14/5 4/15/5
f 6/16/6 5/2/6 1/1/6 2/13/6
