# Blender v2.91.0 OBJ File: 'crystal_ore.blend'
# www.blender.org
mtllib crystal_ore.mtl
o Icosphere.011
v 1.283638 0.085827 -0.858606
v 1.071583 0.197146 -0.931490
v 1.041688 0.048366 -0.806375
v 1.151195 0.080689 -0.646228
v 1.248769 0.249448 -0.672371
v 1.199565 0.321420 -0.848671
v 1.000000 0.432832 -0.763872
v 1.000000 0.257177 -0.887005
v 1.000000 0.458858 -0.706315
v 1.000000 0.234634 -0.890108
v 1.000000 0.433144 -0.563587
v 1.000000 0.379728 -0.528559
v 1.000000 0.079150 -0.788145
v 1.000000 0.207485 -0.552269
v 1.000000 0.165097 -0.581982
v 1.000000 0.077076 -0.776637
vt 0.818181 0.017277
vt 0.909090 0.342908
vt 0.727272 0.342908
vt 0.545454 0.342908
vt 0.636363 0.017277
vt 0.090909 0.017277
vt 0.181818 0.342908
vt 0.000000 0.342908
vt 0.272727 0.017277
vt 0.363636 0.342908
vt 0.454545 0.017277
vt 0.717951 0.376296
vt 0.567415 0.421570
vt 0.904141 0.360634
vt 0.735450 0.372202
vt 0.165180 0.402504
vt 0.005288 0.361851
vt 0.335215 0.444711
vt 0.201506 0.413429
vt 0.520137 0.433590
vt 0.393167 0.448685
vt 0.914379 0.361851
vn -0.0681 -0.6341 -0.7703
vn 0.4036 0.1819 -0.8967
vn 0.1698 -0.9821 0.0821
vn 0.7886 -0.3812 0.4825
vn 0.9331 0.3381 -0.1224
vn -0.0275 0.5738 -0.8185
vn -0.6104 -0.4344 -0.6624
vn -0.3165 -0.8643 0.3908
vn 0.4481 -0.1219 0.8856
vn 0.6267 0.7669 0.1382
vn -0.4481 0.1219 -0.8856
vn -0.6267 -0.7669 -0.1382
vn 0.0275 -0.5738 0.8185
vn 0.6104 0.4344 0.6624
vn 0.3165 0.8643 -0.3908
usemtl crystals
s off
f 1/1/1 3/2/1 2/3/1
f 2/3/2 6/4/2 1/5/2
f 1/6/3 4/7/3 3/8/3
f 1/9/4 5/10/4 4/7/4
f 1/11/5 6/4/5 5/10/5
f 2/3/6 8/12/6 7/13/6 6/4/6
f 3/2/7 13/14/7 10/15/7 2/3/7
f 4/7/8 15/16/8 16/17/8 3/8/8
f 5/10/9 12/18/9 14/19/9 4/7/9
f 6/4/10 9/20/10 11/21/10 5/10/10
f 2/3/11 10/15/11 8/12/11
f 3/2/12 16/22/12 13/14/12
f 4/7/13 14/19/13 15/16/13
f 5/10/14 11/21/14 12/18/14
f 6/4/15 7/13/15 9/20/15
o Icosphere.005_Icosphere.013
v 1.171405 0.885161 -0.230758
v 1.151560 0.671973 -0.360481
v 1.171393 0.643087 -0.166948
v 1.031868 0.747137 -0.075353
v 0.564702 -0.148141 -0.322802
v 0.490728 -0.101686 -0.146584
v 0.458638 -0.054950 -0.459730
v 0.319101 -0.192974 -0.304325
v 0.384953 0.000000 -0.411357
v 0.319110 0.000000 -0.355192
v 0.493670 0.000000 -0.455119
v 0.511018 0.000000 -0.452228
v 0.670709 0.000000 -0.329608
v 0.678293 0.000000 -0.293621
v 0.337065 0.000000 -0.186902
v 0.555555 0.000000 -0.138051
v 0.364116 0.000000 -0.169955
v 0.583661 0.000000 -0.149365
v 1.000000 0.793695 -0.388457
v 1.000000 0.512976 -0.382190
v 1.000000 0.460173 -0.350750
v 1.000000 0.853872 -0.217863
v 1.000000 0.793991 -0.388294
v 1.000000 0.419561 -0.210978
v 1.000000 0.775137 -0.116494
v 1.000000 0.713706 -0.079917
v 1.000000 0.697150 -0.079547
v 1.000000 0.455551 -0.161820
vt 0.818181 0.017277
vt 0.909090 0.342908
vt 0.727272 0.342908
vt 0.545720 0.342908
vt 0.545572 0.342487
vt 0.636363 0.017277
vt 0.090909 0.017277
vt 0.181818 0.342908
vt 0.000000 0.342908
vt 0.272727 0.017277
vt 0.336172 0.244535
vt 0.236447 0.342908
vt 0.454545 0.017277
vt 0.545336 0.342487
vt 0.391100 0.244535
vt 0.707388 0.414131
vt 0.883408 0.434900
vt 0.750750 0.427004
vt 0.176464 0.362084
vt 0.022891 0.424902
vt 0.931981 0.424902
vt 0.185999 0.357884
vt 0.818181 0.668537
vt 0.727272 0.994167
vt 0.636363 0.668537
vt 1.000000 0.668537
vt 0.909090 0.994167
vt 0.545454 0.994167
vt 0.472984 0.734584
vt 0.540342 0.668537
vt 0.630478 0.647456
vt 0.436106 0.734584
vt 0.363636 0.994167
vt 0.281347 0.699413
vt 0.987588 0.624077
vt 0.835202 0.607569
vt 0.643235 0.643921
vt 0.242577 0.668537
vt 0.090909 0.668537
vt 0.101800 0.629527
vt 0.801760 0.609717
vt 0.078497 0.624077
vt 0.264107 0.699413
vt 0.181818 0.994167
vn 0.9940 -0.0280 -0.1060
vn 0.4812 0.4226 -0.7681
vn 0.6363 0.1966 0.7460
vn -0.0975 0.7860 0.6105
vn -0.1934 0.9256 -0.3252
vn 0.1643 -0.0220 -0.9862
vn 0.7980 -0.5787 -0.1682
vn 0.3561 -0.3012 0.8846
vn 0.5507 -0.4270 -0.7172
vn 0.6692 -0.5996 0.4390
vn -0.1643 0.0220 0.9862
vn 0.0975 -0.7860 -0.6105
vn 0.1934 -0.9256 0.3252
vn -0.6363 -0.1966 -0.7460
vn -0.3561 0.3012 -0.8846
vn -0.9940 0.0280 0.1060
vn -0.5507 0.4270 0.7172
vn -0.4812 -0.4226 0.7681
usemtl crystals
s off
f 17/23/16 19/24/16 18/25/16
f 18/25/17 35/26/17 39/27/17 17/28/17
f 17/29/18 20/30/18 19/31/18
f 17/32/19 38/33/19 41/34/19 20/30/19
f 17/35/20 39/36/20 38/37/20
f 18/25/21 36/38/21 35/26/21
f 19/24/22 40/39/22 37/40/22 18/25/22
f 20/30/23 43/41/23 44/42/23 19/31/23
f 18/25/24 37/40/24 36/38/24
f 19/24/25 44/43/25 40/39/25
f 20/30/26 42/44/26 43/41/26
f 21/45/27 24/46/27 23/47/27
f 22/48/28 24/49/28 21/45/28
f 23/47/29 24/50/29 26/51/29 25/52/29
f 27/53/30 23/47/30 25/52/30
f 26/54/31 24/55/31 31/56/31
f 34/57/25 22/48/25 21/45/25 30/58/25
f 42/44/32 20/30/32 41/34/32
f 28/59/21 23/47/21 27/53/21
f 33/60/26 22/61/26 32/62/26
f 29/63/24 21/45/24 23/47/24 28/59/24
f 32/62/23 22/61/23 34/64/23
f 30/58/22 21/45/22 29/63/22
f 31/65/33 24/66/33 22/61/33 33/60/33
o Icosphere.004_Icosphere.014
v -0.069994 0.722420 -0.995420
v -0.137386 0.635967 -0.884368
v -0.172604 0.729907 -0.764856
v -0.126979 0.874419 -0.802045
v -0.063561 0.869794 -0.944542
v -0.246588 0.792935 -0.938065
v 0.000000 0.859129 -0.908003
v 0.000000 0.851381 -0.920305
v 0.000000 0.854132 -0.759334
v -0.000000 0.716482 -0.964077
v 0.000000 0.836055 -0.734470
v 0.000000 0.715262 -0.687565
v 0.000000 0.701273 -0.958171
v 0.000000 0.679905 -0.699037
v 0.000000 0.612916 -0.805389
v -0.000000 0.614018 -0.838157
vt 0.818181 0.668537
vt 0.727272 0.994167
vt 0.636363 0.668537
vt 1.000000 0.668537
vt 0.909090 0.994167
vt 0.272727 0.668537
vt 0.181818 0.994167
vt 0.090909 0.668537
vt 0.454545 0.668537
vt 0.363636 0.994167
vt 0.545454 0.994167
vt 0.827498 0.635162
vt 0.809447 0.637252
vt 0.644365 0.639874
vt 0.983354 0.608912
vt 0.469930 0.613428
vt 0.437642 0.607990
vt 0.250997 0.590702
vt 0.109092 0.603407
vt 0.627951 0.638404
vt 0.294265 0.591389
vt 0.074263 0.608912
vn -0.1707 0.3282 -0.9291
vn -0.4487 -0.5525 -0.7024
vn -0.8352 -0.5243 0.1660
vn -0.7960 0.3738 0.4760
vn -0.3853 0.9007 -0.2007
vn 0.3607 -0.3376 -0.8694
vn 0.4120 0.2812 -0.8667
vn 0.0684 -0.8069 -0.5867
vn -0.0684 0.8069 0.5867
vn -0.4091 -0.7721 0.4863
vn 0.4091 0.7721 -0.4863
vn -0.4120 -0.2812 0.8667
vn 0.1468 0.9886 0.0332
vn -0.1468 -0.9886 -0.0332
vn -0.3607 0.3376 0.8694
usemtl crystals
s off
f 45/67/34 50/68/34 49/69/34
f 46/70/35 50/71/35 45/67/35
f 47/72/36 50/73/36 46/74/36
f 48/75/37 50/76/37 47/72/37
f 49/69/38 50/77/38 48/75/38
f 57/78/39 45/67/39 54/79/39
f 54/79/40 45/67/40 49/69/40 52/80/40
f 60/81/41 46/70/41 45/67/41 57/78/41
f 53/82/42 48/75/42 55/83/42
f 58/84/43 47/72/43 46/74/43 59/85/43
f 52/80/44 49/69/44 51/86/44
f 56/87/45 47/72/45 58/84/45
f 51/86/46 49/69/46 48/75/46 53/82/46
f 59/85/47 46/74/47 60/88/47
f 55/83/48 48/75/48 47/72/48 56/87/48
o Icosphere.002_Icosphere.015
v 1.156865 1.217509 -0.776032
v 1.138553 0.952697 -0.765570
v 1.125763 1.043238 -0.577961
v 0.974178 1.186490 -0.585680
v 0.893284 1.184480 -0.778063
v 0.994874 1.039989 -0.889239
v 1.000000 1.000000 -0.857229
v 1.000000 0.825081 -0.726319
v 1.000000 0.810528 -0.683100
v 1.000000 0.894947 -0.536520
v 1.000000 1.000000 -0.540760
v 1.000000 0.937612 -0.523976
v 0.963414 1.000000 -0.872084
v 0.947261 1.000000 -0.868800
v 0.736829 1.000000 -0.726509
v 0.713496 1.000000 -0.671050
v 0.771705 1.000000 -0.528322
v 0.827463 1.000000 -0.505682
vt 0.818181 0.017277
vt 0.909090 0.342908
vt 0.727272 0.342908
vt 0.545454 0.342908
vt 0.636363 0.017277
vt 0.090909 0.017277
vt 0.181818 0.342908
vt 0.000000 0.342908
vt 0.272727 0.017277
vt 0.363636 0.342908
vt 0.454545 0.017277
vt 0.710937 0.401417
vt 0.579623 0.353095
vt 0.550012 0.359236
vt 0.892213 0.403361
vt 0.745521 0.408274
vt 0.160560 0.419051
vt 0.052522 0.380867
vt 0.014676 0.395477
vt 0.339956 0.427728
vt 0.205688 0.428409
vt 0.539898 0.362810
vt 0.384632 0.418114
vt 0.923766 0.395477
vn 0.9930 -0.0648 0.0989
vn 0.6244 -0.0739 -0.7776
vn 0.5301 0.5936 0.6055
vn -0.1245 0.9913 0.0420
vn -0.0663 0.5788 -0.8128
vn 0.3092 -0.5698 -0.7614
vn 0.7646 -0.5585 0.3217
vn 0.1926 0.2549 0.9476
vn -0.6163 0.7464 0.2513
vn -0.5442 0.2366 -0.8049
vn 0.6163 -0.7464 -0.2513
vn 0.5442 -0.2366 0.8049
vn -0.3092 0.5698 0.7614
vn -0.7646 0.5585 -0.3217
vn -0.1926 -0.2549 -0.9476
usemtl crystals
s off
f 61/89/49 63/90/49 62/91/49
f 62/91/50 66/92/50 61/93/50
f 61/94/51 64/95/51 63/96/51
f 61/97/52 65/98/52 64/95/52
f 61/99/53 66/92/53 65/98/53
f 62/91/54 68/100/54 67/101/54 73/102/54 66/92/54
f 63/90/55 70/103/55 69/104/55 62/91/55
f 64/95/56 78/105/56 71/106/56 72/107/56 63/96/56
f 65/98/57 76/108/57 77/109/57 64/95/57
f 66/92/58 74/110/58 75/111/58 65/98/58
f 62/91/59 69/104/59 68/100/59
f 63/90/60 72/112/60 70/103/60
f 64/95/61 77/109/61 78/105/61
f 65/98/62 75/111/62 76/108/62
f 66/92/63 73/102/63 74/110/63
o Icosphere.008_Icosphere.016
v -0.109826 0.193159 -0.254965
v -0.047769 0.153506 -0.117397
v -0.067637 0.273173 -0.019248
v -0.141973 0.386785 -0.096155
v -0.168049 0.337335 -0.241838
v -0.236917 0.212491 -0.103566
v 0.000000 0.421204 -0.280373
v 0.000000 0.391027 -0.302168
v -0.000000 0.449984 -0.160577
v 0.000000 0.255197 -0.295680
v 0.000000 0.437037 -0.128684
v 0.000000 0.311379 -0.044323
v 0.000000 0.232033 -0.280129
v 0.000000 0.294783 -0.043530
v -0.000000 0.177347 -0.128351
v 0.000000 0.174771 -0.139073
vt 0.818181 0.668537
vt 0.727272 0.994167
vt 0.636363 0.668537
vt 1.000000 0.668537
vt 0.909090 0.994167
vt 0.272727 0.668537
vt 0.181818 0.994167
vt 0.090909 0.668537
vt 0.454545 0.668537
vt 0.363636 0.994167
vt 0.545454 0.994167
vt 0.831714 0.620061
vt 0.803131 0.614629
vt 0.657533 0.592706
vt 0.993573 0.645516
vt 0.473647 0.600116
vt 0.437050 0.605872
vt 0.264206 0.638016
vt 0.097097 0.646371
vt 0.614593 0.590559
vt 0.281996 0.635337
vt 0.084482 0.645516
vn -0.7570 -0.2507 -0.6034
vn -0.3040 -0.9431 -0.1347
vn -0.1451 -0.6417 0.7531
vn -0.4999 0.2369 0.8331
vn -0.8781 0.4785 -0.0053
vn 0.0071 -0.5574 -0.8302
vn -0.3247 -0.0451 -0.9447
vn 0.2350 -0.9006 -0.3656
vn -0.2350 0.9006 0.3656
vn 0.4313 -0.5282 0.7314
vn -0.4313 0.5282 -0.7314
vn 0.3247 0.0451 0.9447
vn -0.4744 0.8560 -0.2056
vn 0.4744 -0.8560 0.2056
vn -0.0071 0.5574 0.8302
usemtl crystals
s off
f 79/113/64 84/114/64 83/115/64
f 80/116/65 84/117/65 79/113/65
f 81/118/66 84/119/66 80/120/66
f 82/121/67 84/122/67 81/118/67
f 83/115/68 84/123/68 82/121/68
f 91/124/69 79/113/69 88/125/69
f 88/125/70 79/113/70 83/115/70 86/126/70
f 94/127/71 80/116/71 79/113/71 91/124/71
f 87/128/72 82/121/72 89/129/72
f 92/130/73 81/118/73 80/120/73 93/131/73
f 86/126/74 83/115/74 85/132/74
f 90/133/75 81/118/75 92/130/75
f 85/132/76 83/115/76 82/121/76 87/128/76
f 93/131/77 80/120/77 94/134/77
f 89/129/78 82/121/78 81/118/78 90/133/78
o Icosphere.009_Icosphere.017
v 0.409635 0.292470 0.074208
v 0.279884 0.431088 0.088192
v 0.120048 0.370754 0.004180
v 0.201628 0.218434 0.174080
v 0.433080 0.333689 -0.000000
v 0.317693 0.153362 -0.000000
v 0.433927 0.315951 0.000000
v 0.345847 0.175534 -0.000000
v 0.121993 0.372997 -0.000000
v 0.121416 0.372077 0.000000
v 0.301005 0.467849 -0.000000
v 0.122012 0.359598 -0.000000
v 0.164266 0.201021 -0.000000
v 0.320952 0.464652 0.000000
vt 0.272727 0.668537
vt 0.181818 0.994167
vt 0.099619 0.699735
vt 0.127106 0.668537
vt 0.454545 0.668537
vt 0.363636 0.994167
vt 0.636363 0.668537
vt 0.545454 0.994167
vt 0.647894 0.668537
vt 0.636790 0.667006
vt 0.463652 0.635917
vt 0.444968 0.634231
vt 0.265139 0.641356
vt 0.635886 0.666827
vt 0.280923 0.639180
vt 0.794384 0.753776
vt 0.727272 0.994167
vt 0.991290 0.699735
vt 0.909090 0.994167
vt 0.841978 0.753776
vn 0.5054 -0.6417 0.5768
vn 0.3507 0.2369 0.9060
vn -0.5432 0.4785 0.6899
vn -0.9451 -0.0451 -0.3237
vn 0.1443 0.9006 0.4100
vn 0.8421 -0.5282 0.1085
vn -0.8421 0.5282 -0.1085
vn 0.9451 0.0451 0.3237
vn -0.4536 0.8560 0.2482
vn -0.9410 -0.2507 0.2271
vn -0.2930 -0.9431 0.1572
vn 0.6510 0.5574 0.5153
usemtl crystals
s off
f 95/135/79 98/136/79 100/137/79 102/138/79
f 96/139/80 98/140/80 95/135/80
f 97/141/81 98/142/81 96/139/81
f 106/143/82 97/141/82 104/144/82
f 105/145/83 96/139/83 108/146/83
f 101/147/84 95/135/84 102/138/84
f 104/144/85 97/141/85 103/148/85
f 99/149/86 95/135/86 101/147/86
f 103/148/87 97/141/87 96/139/87 105/145/87
f 107/150/88 98/151/88 97/141/88 106/143/88
f 100/152/89 98/153/89 107/154/89
f 108/146/90 96/139/90 95/135/90 99/149/90
o Icosphere.000_Icosphere.018
v 0.812965 0.017792 0.175621
v 0.894454 -0.012521 0.093951
v 0.969993 0.078959 0.081527
v 0.935190 0.165811 0.155519
v 0.838141 0.128009 0.213673
v 0.955647 0.032570 0.225387
v 0.695648 0.252942 0.000000
v 0.655443 0.212548 0.000000
v 0.778636 0.255264 -0.000000
v 0.659631 0.141274 -0.000000
v 0.831518 0.230297 -0.000000
v 0.898811 0.136282 -0.000000
v 0.695893 0.090612 -0.000000
v 0.900284 0.111215 0.000000
v 0.831801 0.042411 -0.000000
v 0.799877 0.041518 -0.000000
vt 0.818181 0.668537
vt 0.727272 0.994167
vt 0.636363 0.668537
vt 1.000000 0.668537
vt 0.909090 0.994167
vt 0.272727 0.668537
vt 0.181818 0.994167
vt 0.090909 0.668537
vt 0.454545 0.668537
vt 0.363636 0.994167
vt 0.545454 0.994167
vt 0.851344 0.549750
vt 0.778996 0.528178
vt 0.679967 0.512352
vt 0.978634 0.592007
vt 0.489912 0.541856
vt 0.425178 0.563346
vt 0.256090 0.608944
vt 0.109561 0.601726
vt 0.593943 0.516590
vt 0.290918 0.603378
vt 0.659631 0.141274
vt 0.655443 0.212548
vt 0.695648 0.252942
vt 0.778636 0.255264
vt 0.831518 0.230297
vt 0.898811 0.136282
vt 0.900284 0.111215
vt 0.831801 0.042411
vt 0.799877 0.041518
vt 0.695892 0.090612
vt 0.069543 0.592007
vn -0.2956 -0.2507 0.9218
vn -0.0181 -0.9431 0.3320
vn 0.7555 -0.6417 -0.1316
vn 0.9562 0.2369 0.1717
vn 0.3066 0.4785 0.8228
vn -0.7787 -0.5574 0.2880
vn -0.7680 -0.0451 0.6388
vn -0.4252 -0.9006 -0.0900
vn 0.4252 0.9006 0.0900
vn 0.5307 -0.5282 -0.6628
vn -0.5307 0.5282 0.6628
vn 0.7680 0.0451 -0.6388
vn -0.0239 0.8560 0.5165
vn -0.0000 0.0000 -1.0000
vn 0.0239 -0.8560 -0.5165
vn 0.7787 0.5574 -0.2880
usemtl crystals
s off
f 109/155/91 114/156/91 113/157/91
f 110/158/92 114/159/92 109/155/92
f 111/160/93 114/161/93 110/162/93
f 112/163/94 114/164/94 111/160/94
f 113/157/95 114/165/95 112/163/95
f 121/166/96 109/155/96 118/167/96
f 118/167/97 109/155/97 113/157/97 116/168/97
f 124/169/98 110/158/98 109/155/98 121/166/98
f 117/170/99 112/163/99 119/171/99
f 122/172/100 111/160/100 110/162/100 123/173/100
f 116/168/101 113/157/101 115/174/101
f 120/175/102 111/160/102 122/172/102
f 115/174/103 113/157/103 112/163/103 117/170/103
f 118/176/104 116/177/104 115/178/104 117/179/104 119/180/104 120/181/104 122/182/104 123/183/104 124/184/104 121/185/104
f 123/173/105 110/162/105 124/186/105
f 119/171/106 112/163/106 111/160/106 120/175/106
o Icosphere.001_Icosphere.019
v 0.846797 0.801073 0.294302
v 0.825535 0.514943 0.105772
v 0.593925 0.578351 0.228601
v 0.531319 0.832251 0.162512
v -0.177519 0.245170 -0.871027
v -0.096980 0.459876 -1.013028
v 0.134630 0.396468 -1.135858
v 0.197236 0.142569 -1.069768
v -0.118242 0.173746 -1.201558
v 0.885526 0.674870 0.000000
v 0.769002 0.481438 -0.000000
v 0.739691 0.466244 -0.000000
v 0.899577 0.737478 0.000000
v 0.475139 0.471718 0.000000
v 0.000000 0.053452 -0.916493
v 0.000000 0.053716 -0.905260
v 0.000000 0.321839 -0.617988
v 0.724724 0.925265 0.000000
v 0.722869 0.925091 -0.000000
v 0.444460 0.780772 -0.000000
v 0.419863 0.739939 -0.000000
v 0.433550 0.509087 0.000000
v 0.245086 0.182199 -1.000000
v 0.234525 0.164669 -1.000000
v 0.229941 0.437632 -1.000000
v 0.000000 0.091936 -1.000000
v 0.115001 0.102711 -1.000000
v 0.205224 0.459840 -1.000000
v 0.000000 0.464087 -1.000000
v 0.000000 0.514893 -0.893535
v -0.000000 0.517354 -0.831580
v -0.000000 0.392197 -0.612191
vt 0.818181 0.017277
vt 0.909090 0.342908
vt 0.727272 0.342908
vt 0.591842 0.342908
vt 0.555419 0.307216
vt 0.636363 0.017277
vt 0.090909 0.017277
vt 0.181818 0.342908
vt 0.000000 0.342908
vt 0.272727 0.017277
vt 0.363278 0.341625
vt 0.362343 0.342908
vt 0.454545 0.017277
vt 0.535489 0.307216
vt 0.363994 0.341625
vt 0.719092 0.372207
vt 0.890775 0.408511
vt 0.736775 0.376947
vt 0.167524 0.394109
vt 0.018899 0.410603
vt 0.927989 0.410603
vt 0.194386 0.387924
vt 1.000000 0.668537
vt 0.909090 0.994167
vt 0.821381 0.679999
vt 0.822495 0.668537
vt 0.272727 0.668537
vt 0.181818 0.994167
vt 0.090909 0.668537
vt 0.454545 0.668537
vt 0.363636 0.994167
vt 0.636363 0.668537
vt 0.545454 0.994167
vt 0.630226 0.646555
vt 0.465777 0.628306
vt 0.979080 0.593605
vt 0.443660 0.629549
vt 0.283463 0.630082
vt 0.258695 0.618275
vt 0.641758 0.649211
vt 0.324196 0.654035
vt 0.113676 0.586987
vt 0.814981 0.679999
vt 0.727272 0.994167
vt 0.713864 0.668537
vt 0.771829 0.748075
vt 0.069990 0.593605
vn 0.2723 -0.5434 0.7941
vn 0.9525 -0.2138 0.2170
vn -0.3687 0.1479 0.9177
vn -0.0848 0.9049 0.4170
vn 0.7318 0.6814 -0.0160
vn 0.8217 -0.4950 -0.2824
vn -0.0187 -0.9023 0.4306
vn -0.8108 -0.0481 0.5834
vn 0.4599 -0.8873 0.0352
vn -0.5490 -0.6110 0.5703
vn -0.8217 0.4950 0.2824
vn -0.7318 -0.6814 0.0160
vn -0.9525 0.2138 -0.2170
vn -0.2723 0.5434 -0.7941
vn 0.3687 -0.1479 -0.9177
vn 0.8108 0.0481 -0.5834
vn 0.5490 0.6110 -0.5703
vn -0.4599 0.8873 -0.0352
vn 0.0187 0.9023 -0.4306
vn 0.0848 -0.9049 -0.4170
usemtl crystals
s off
f 125/187/107 127/188/107 126/189/107
f 126/189/108 134/190/108 137/191/108 125/192/108
f 125/193/109 128/194/109 127/195/109
f 125/196/110 142/197/110 143/198/110 128/194/110
f 125/199/111 137/200/111 142/201/111
f 126/189/112 135/202/112 134/190/112
f 127/188/113 138/203/113 136/204/113 126/189/113
f 128/194/114 145/205/114 146/206/114 127/195/114
f 126/189/115 136/204/115 135/202/115
f 127/188/116 146/207/116 138/203/116
f 128/194/117 144/208/117 145/205/117
f 129/209/118 133/210/118 139/211/118 140/212/118
f 130/213/119 133/214/119 129/215/119
f 131/216/120 133/217/120 130/213/120
f 132/218/121 133/219/121 131/216/121
f 147/220/122 132/218/122 131/216/122 149/221/122
f 141/222/116 129/209/116 140/212/116
f 149/221/123 131/216/123 152/223/123
f 154/224/124 130/213/124 155/225/124
f 144/208/124 128/194/124 143/198/124
f 148/226/112 132/218/112 147/220/112
f 152/223/125 131/216/125 130/213/125 154/224/125 153/227/125
f 155/225/117 130/213/117 129/215/117 156/228/117
f 139/229/126 133/230/126 132/218/126 151/231/126 150/232/126
f 151/231/115 132/218/115 148/226/115
f 156/228/114 129/215/114 141/233/114
o Icosphere.003_Icosphere.020
v 0.859580 0.278466 -1.097654
v 0.775470 0.102146 -1.074860
v 0.583305 0.121195 -1.112171
v 0.548648 0.309289 -1.158025
v 0.719396 0.406490 -1.149054
v 0.728382 0.205459 -1.297976
v 0.532719 0.355291 -1.000000
v 0.519623 0.326005 -1.000000
v 0.557569 0.156052 -1.000000
v 0.574740 0.139782 -1.000000
v 0.754475 0.116527 -1.000000
v 0.767924 0.123938 -1.000000
v 0.677593 0.435124 -1.000000
v 0.708015 0.431188 -1.000000
v 0.837174 0.308812 -1.000000
v 0.841643 0.288796 -1.000000
vt 0.818181 0.668537
vt 0.727272 0.994167
vt 0.636363 0.668537
vt 1.000000 0.668537
vt 0.909090 0.994167
vt 0.272727 0.668537
vt 0.181818 0.994167
vt 0.090909 0.668537
vt 0.454545 0.668537
vt 0.363636 0.994167
vt 0.545454 0.994167
vt 0.622181 0.617738
vt 0.469441 0.615182
vt 0.992944 0.643261
vt 0.827173 0.636326
vt 0.439993 0.616413
vt 0.650012 0.619647
vt 0.283559 0.629736
vt 0.262455 0.631745
vt 0.098032 0.643024
vt 0.808750 0.634757
vt 0.083853 0.643261
vn 0.6493 0.4713 -0.5970
vn 0.8168 -0.4382 -0.3753
vn -0.0087 -0.9081 -0.4187
vn -0.6865 -0.2891 -0.6672
vn -0.2799 0.5634 -0.7774
vn -0.4618 0.8381 -0.2905
vn 0.8932 -0.3994 0.2063
vn -0.8932 0.3994 -0.2063
vn 0.1268 0.9801 -0.1527
vn -0.6862 -0.7242 0.0676
vn -0.9643 -0.2153 -0.1543
vn -0.1268 -0.9801 0.1527
vn 0.6862 0.7242 -0.0676
vn 0.9643 0.2153 0.1543
vn 0.4618 -0.8381 0.2905
usemtl crystals
s off
f 157/234/127 162/235/127 161/236/127
f 158/237/128 162/238/128 157/234/128
f 159/239/129 162/240/129 158/241/129
f 160/242/130 162/243/130 159/239/130
f 161/236/131 162/244/131 160/242/131
f 169/245/132 161/236/132 160/242/132 163/246/132
f 168/247/133 158/237/133 157/234/133 172/248/133
f 163/246/134 160/242/134 164/249/134
f 170/250/135 161/236/135 169/245/135
f 165/251/136 159/239/136 166/252/136
f 164/249/137 160/242/137 159/239/137 165/251/137
f 166/252/138 159/239/138 158/241/138 167/253/138
f 171/254/139 157/234/139 161/236/139 170/250/139
f 172/248/140 157/234/140 171/254/140
f 167/253/141 158/241/141 168/255/141
o Icosphere.006_Icosphere.021
v 0.500634 0.597577 -1.249422
v 0.392741 0.660605 -1.095040
v 0.448430 0.516093 -1.075979
v 0.602911 0.520719 -1.097501
v 0.642693 0.668092 -1.129863
v 0.512801 0.754545 -1.128341
v 0.453612 0.536405 -1.000000
v 0.466435 0.527917 -1.000000
v 0.517348 0.773225 -1.000000
v 0.411299 0.686817 -1.000000
v 0.543214 0.774518 -1.000000
v 0.405759 0.668034 -1.000000
v 0.651550 0.702808 -1.000000
v 0.660481 0.678242 -1.000000
v 0.621950 0.547609 -1.000000
v 0.606365 0.534910 -1.000000
vt 0.818181 0.017277
vt 0.909090 0.342908
vt 0.727272 0.342908
vt 0.545454 0.342908
vt 0.636363 0.017277
vt 0.090909 0.017277
vt 0.181818 0.342908
vt 0.000000 0.342908
vt 0.272727 0.017277
vt 0.363636 0.342908
vt 0.454545 0.017277
vt 0.715881 0.383709
vt 0.560189 0.395688
vt 0.900141 0.374964
vt 0.738197 0.382039
vt 0.170624 0.383005
vt 0.008967 0.375027
vt 0.348708 0.396377
vt 0.193504 0.384765
vt 0.530307 0.397163
vt 0.378932 0.397698
vt 0.918057 0.375027
vn -0.8250 -0.3738 -0.4239
vn -0.5825 0.5243 -0.6211
vn -0.0334 -0.9007 -0.4332
vn 0.6983 -0.3282 -0.6361
vn 0.3589 0.5525 -0.7523
vn -0.6291 0.7721 -0.0901
vn -0.9287 -0.3376 0.1536
vn 0.0494 -0.9886 0.1421
vn 0.9535 -0.2812 -0.1086
vn 0.5341 0.8069 -0.2521
vn -0.9535 0.2812 0.1086
vn -0.5341 -0.8069 0.2521
vn 0.6291 -0.7721 0.0901
vn 0.9287 0.3376 -0.1536
vn -0.0494 0.9886 -0.1421
usemtl crystals
s off
f 173/256/142 175/257/142 174/258/142
f 174/258/143 178/259/143 173/260/143
f 173/261/144 176/262/144 175/263/144
f 173/264/145 177/265/145 176/262/145
f 173/266/146 178/259/146 177/265/146
f 174/258/147 182/267/147 181/268/147 178/259/147
f 175/257/148 179/269/148 184/270/148 174/258/148
f 176/262/149 188/271/149 180/272/149 175/263/149
f 177/265/150 186/273/150 187/274/150 176/262/150
f 178/259/151 183/275/151 185/276/151 177/265/151
f 174/258/152 184/270/152 182/267/152
f 175/257/153 180/277/153 179/269/153
f 176/262/154 187/274/154 188/271/154
f 177/265/155 185/276/155 186/273/155
f 178/259/156 181/268/156 183/275/156
o Icosphere.007_Icosphere.022
v 0.277548 1.337722 -0.244086
v 0.426660 1.216910 -0.392047
v 0.454268 1.175842 -0.208208
v 0.287324 1.121935 -0.134252
v 0.156539 1.129688 -0.272388
v 0.242655 1.188385 -0.431712
v 0.303518 1.000000 -0.482935
v 0.451597 1.000000 -0.458481
v 0.267106 1.000000 -0.465433
v 0.481693 1.000000 -0.425926
v 0.186952 1.000000 -0.320208
v 0.189443 1.000000 -0.292643
v 0.495505 1.000000 -0.273047
v 0.301342 1.000000 -0.171598
v 0.326718 1.000000 -0.167407
v 0.477091 1.000000 -0.239685
vt 0.818181 0.017277
vt 0.909090 0.342908
vt 0.727272 0.342908
vt 0.545454 0.342908
vt 0.636363 0.017277
vt 0.090909 0.017277
vt 0.181818 0.342908
vt 0.000000 0.342908
vt 0.272727 0.017277
vt 0.363636 0.342908
vt 0.454545 0.017277
vt 0.706033 0.418985
vt 0.564485 0.411074
vt 0.891231 0.406877
vt 0.748335 0.418355
vt 0.169500 0.387030
vt 0.016760 0.402940
vt 0.351043 0.388017
vt 0.193757 0.385674
vt 0.527499 0.407222
vt 0.376807 0.390086
vt 0.925850 0.402940
vn 0.6667 0.7424 0.0657
vn 0.0135 0.7811 -0.6242
vn 0.2366 0.4492 0.8615
vn -0.6825 0.3067 0.6634
vn -0.8204 0.5119 -0.2548
vn 0.1551 0.3056 -0.9394
vn 0.9623 0.2577 -0.0869
vn 0.4308 -0.1045 0.8964
vn -0.7048 -0.2806 0.6516
vn -0.8752 -0.0271 -0.4830
vn 0.7048 0.2806 -0.6516
vn 0.8752 0.0271 0.4830
vn -0.1551 -0.3056 0.9394
vn -0.9623 -0.2577 0.0869
vn -0.4308 0.1045 -0.8964
usemtl crystals
s off
f 189/278/157 191/279/157 190/280/157
f 190/280/158 194/281/158 189/282/158
f 189/283/159 192/284/159 191/285/159
f 189/286/160 193/287/160 192/284/160
f 189/288/161 194/281/161 193/287/161
f 190/280/162 196/289/162 195/290/162 194/281/162
f 191/279/163 201/291/163 198/292/163 190/280/163
f 192/284/164 203/293/164 204/294/164 191/285/164
f 193/287/165 200/295/165 202/296/165 192/284/165
f 194/281/166 197/297/166 199/298/166 193/287/166
f 190/280/167 198/292/167 196/289/167
f 191/279/168 204/299/168 201/291/168
f 192/284/169 202/296/169 203/293/169
f 193/287/170 199/298/170 200/295/170
f 194/281/171 195/290/171 197/297/171
